<svg version="1.1" id="Layer_1" xmlns="http://www.w3.org/2000/svg" xmlns:xlink="http://www.w3.org/1999/xlink" x="0px" y="0px"
	 width="100%" viewBox="0 0 380 300" enable-background="new 0 0 380 300" xml:space="preserve">
<path fill="#171E2F" opacity="1.000000" stroke="none" 
	d="
M238.000000,301.000000 
	C158.666687,301.000000 79.833359,301.000000 1.000032,301.000000 
	C1.000021,201.000031 1.000021,101.000061 1.000011,1.000072 
	C127.666618,1.000048 254.333237,1.000048 380.999878,1.000024 
	C380.999939,100.999931 380.999939,200.999863 380.999969,300.999878 
	C333.500000,301.000000 286.000000,301.000000 238.000000,301.000000 
M117.898071,224.273300 
	C118.372429,224.892349 118.787354,225.991302 119.330055,226.058517 
	C127.575180,227.079605 131.748001,222.524277 130.691254,213.072723 
	C130.620880,202.385437 130.550507,191.698151 130.687408,180.164062 
	C130.476013,177.436752 130.264633,174.709427 129.869797,171.145340 
	C130.480469,168.665237 130.821686,166.078369 131.753967,163.725708 
	C134.225632,157.488373 136.952759,151.352264 139.992752,144.645691 
	C142.166977,139.645386 144.330841,134.640564 146.517685,129.645782 
	C150.686111,120.125038 154.867615,110.610016 159.676849,101.077087 
	C160.058884,101.255455 160.440933,101.433823 160.536819,102.311951 
	C160.517532,116.535713 160.498245,130.759476 160.275375,145.902542 
	C160.266281,181.671204 160.238831,217.439896 160.290939,253.208466 
	C160.294281,255.501633 160.660370,257.874298 161.353149,260.052368 
	C161.694733,261.126312 163.161667,262.585846 164.131729,262.595276 
	C170.246414,262.654510 176.364563,262.355591 182.865891,262.898865 
	C185.167450,266.504333 185.715363,272.688171 192.467911,270.008331 
	C196.518768,268.400665 200.355881,266.254395 204.355774,264.317932 
	C204.362305,264.361298 204.563171,264.984650 204.531448,265.595886 
	C204.192612,272.126740 206.664246,273.775513 212.540115,271.027802 
	C213.281464,270.681152 214.816513,270.625885 215.170624,271.075745 
	C218.512756,275.321625 222.666595,279.315918 224.586334,284.173218 
	C226.160095,288.155151 230.405182,287.401917 231.842377,290.497681 
	C233.451157,289.010315 235.341141,287.720764 236.573639,285.968719 
	C237.451263,284.721130 237.444000,282.851105 237.831635,281.258881 
	C236.347504,281.514771 234.871414,281.884552 233.376648,281.990295 
	C232.194122,282.073944 230.988693,281.833466 229.793411,281.736938 
	C230.032181,280.547363 229.894562,278.643372 230.572021,278.286438 
	C234.408371,276.265320 233.114838,272.991119 233.710617,270.086639 
	C243.580246,275.983124 254.170502,279.949646 265.712708,280.148895 
	C284.204834,280.468140 302.708618,280.411865 321.201630,280.129944 
	C325.029114,280.071564 328.830933,278.332306 333.339874,277.367584 
	C334.250580,276.974548 335.339569,276.782379 336.044159,276.157104 
	C342.461548,270.462097 349.432983,266.301025 358.492340,266.953857 
	C359.856567,267.052155 361.355408,266.187073 362.695190,265.560699 
	C367.896027,263.129150 370.586395,257.271667 370.172211,251.039871 
	C369.770630,244.998459 365.517120,244.630035 360.297852,244.292374 
	C359.945801,238.209030 359.347839,232.326035 359.311249,226.439560 
	C359.183868,205.952621 359.260773,185.464462 359.228790,164.976822 
	C359.225677,162.985870 359.027374,160.993744 358.884094,159.004730 
	C358.246460,150.152832 352.691437,144.558334 343.427002,143.421570 
	C332.684937,143.172195 321.942657,142.728577 311.200897,142.740891 
	C303.883820,142.749283 299.819031,146.986771 299.794312,153.763245 
	C299.770782,160.218964 305.180206,165.451584 312.040802,165.463623 
	C318.014801,165.474106 323.993134,165.187714 329.961029,165.348282 
	C331.986176,165.402771 333.985382,166.420975 336.209503,167.821106 
	C336.609283,169.072617 337.360168,170.325119 337.356628,171.575500 
	C337.294189,193.717148 337.139923,215.858521 336.262878,237.971970 
	C334.684662,236.694672 333.007996,235.519638 331.550659,234.116791 
	C329.205200,231.858963 323.474823,231.073410 322.021088,233.181137 
	C319.787933,236.418854 322.706757,237.852356 324.625946,239.588486 
	C324.943298,239.875549 325.036682,240.410126 325.263428,240.894043 
	C319.500702,240.823196 318.351898,239.709351 318.242767,234.684906 
	C318.216980,233.497910 317.853271,232.040405 317.096405,231.203445 
	C315.380981,229.306412 313.118195,227.688431 315.721436,225.006348 
	C317.951111,222.709137 319.637787,223.764786 321.435669,225.897324 
	C322.049164,226.624954 323.829163,226.577164 325.045288,226.483307 
	C325.513031,226.447205 326.382904,224.904968 326.233795,224.718994 
	C325.458252,223.751617 324.460541,222.935699 323.447571,222.193420 
	C322.576477,221.555130 321.127930,221.318466 320.712494,220.506363 
	C317.557343,214.338531 317.622498,214.323181 311.471741,216.568008 
	C310.707306,216.847000 309.846741,216.862717 308.849030,216.083557 
	C308.849030,211.636978 308.849030,207.190414 308.849030,202.018936 
	C303.532349,202.018936 298.766388,202.018936 293.214600,201.821960 
	C292.142975,201.885757 291.071381,201.949554 289.117859,201.823349 
	C285.418152,201.215424 281.718445,200.607483 278.145233,199.070435 
	C278.057434,193.046265 277.969666,187.022079 278.058228,180.177414 
	C277.994629,178.785828 277.931030,177.394241 278.063416,175.103470 
	C277.984039,171.734741 277.904663,168.365997 278.000763,164.258087 
	C277.932434,163.506927 277.864136,162.755783 277.969604,161.180649 
	C277.905273,159.785110 277.840912,158.389587 277.939911,156.070282 
	C278.008636,139.541992 278.077393,123.013718 278.747345,105.952133 
	C281.170593,105.222145 283.587524,103.884918 286.018127,103.859482 
	C303.432861,103.677223 320.850403,103.782761 338.266968,103.751068 
	C345.055420,103.738716 349.752777,100.938477 351.011871,96.310181 
	C352.431030,91.093437 349.740875,85.903732 344.119873,81.786407 
	C347.847778,79.627777 351.575684,77.469139 355.475647,75.210892 
	C353.928192,72.005585 352.464600,68.973999 351.820160,65.766739 
	C352.318909,65.751175 352.818176,65.745667 353.316284,65.718552 
	C363.074615,65.187531 368.999878,58.863892 368.700867,49.302631 
	C368.439270,40.937962 363.985992,37.186306 353.249237,37.642460 
	C347.141968,37.901928 342.635162,35.671120 339.322937,31.156950 
	C335.525482,25.981432 330.496887,24.585304 324.558167,24.585794 
	C304.764343,24.587431 284.957520,24.046833 265.180267,24.597589 
	C244.594009,25.170876 227.626450,33.373413 216.073380,51.135777 
	C214.541550,53.490921 212.933578,55.796535 210.564255,58.095444 
	C209.162506,58.489395 207.354523,58.464802 206.435852,59.356464 
	C203.771973,61.941967 201.921967,61.648380 199.460678,58.946583 
	C197.035706,56.284676 193.962952,54.212914 191.128525,51.843868 
	C185.223434,60.589989 186.137985,67.927818 196.206009,73.566879 
	C194.190140,74.634659 192.812637,75.364296 190.595383,76.538750 
	C192.665237,78.327278 194.258820,79.704269 194.928436,80.282875 
	C192.241852,83.813141 189.562256,87.205910 187.032990,90.707283 
	C185.583221,92.714287 184.377594,94.897644 182.864426,96.082588 
	C182.760559,89.728310 182.656693,83.374031 182.752747,76.156487 
	C182.683517,74.097473 182.614288,72.038460 182.729034,69.072014 
	C182.671219,65.054901 182.613419,61.037788 182.748932,56.099548 
	C182.748932,50.474998 182.748932,44.850449 182.748932,38.886021 
	C178.509552,38.886021 174.738358,38.886021 170.088348,38.664959 
	C167.122681,39.310905 162.351562,39.042198 161.485474,40.751804 
	C156.021042,51.538097 151.382462,62.745670 146.550659,73.848717 
	C141.976120,84.360603 137.481903,94.907600 132.983521,105.452446 
	C127.521416,118.256401 122.091942,131.074280 116.174156,144.392853 
	C111.639091,155.278534 107.104034,166.164215 102.206001,177.921143 
	C100.949310,175.398376 100.100464,173.694351 99.219978,171.233200 
	C95.889229,164.122604 92.558487,157.011993 89.119408,149.195679 
	C85.157990,141.434830 81.196571,133.673981 77.194923,125.213997 
	C76.241356,123.422401 75.287788,121.630806 74.248222,119.115158 
	C73.223511,117.222130 72.127022,115.364014 71.186386,113.430092 
	C66.896713,104.610580 62.752926,95.717865 58.310261,86.976715 
	C57.322044,85.032356 55.634327,83.023827 53.749302,82.041420 
	C49.696815,79.929398 41.752377,81.578224 38.751812,84.592278 
	C36.031761,87.324554 35.787296,93.097801 38.388424,98.176193 
	C46.903854,114.801559 55.486584,131.392456 64.063477,148.650513 
	C64.702034,149.770630 65.340584,150.890762 66.001663,152.604111 
	C66.476898,153.463486 66.952133,154.322876 67.427521,155.842606 
	C67.848755,156.595825 68.269997,157.349030 68.750793,158.803101 
	C69.439758,159.997406 70.128723,161.191711 70.968124,163.076324 
	C72.027855,166.770401 73.399750,170.410385 74.051834,174.175079 
	C74.606720,177.378586 74.332428,180.725708 74.242485,184.927261 
	C74.310555,190.282578 74.378624,195.637878 74.257149,201.863403 
	C74.314468,204.230194 74.371780,206.596970 74.224792,209.884262 
	C74.224792,215.508102 74.224792,221.131943 74.224792,227.173187 
	C76.377174,227.173187 78.289391,227.730042 79.576958,227.069427 
	C83.538185,225.037033 86.538574,221.264526 92.042732,222.606827 
	C94.423203,223.187347 97.372421,221.435684 100.530510,221.236877 
	C103.703156,220.796432 106.875793,220.355972 110.233749,220.565582 
	C110.319649,221.007263 110.405556,221.448929 110.262497,222.373657 
	C110.441284,222.866852 110.620071,223.360031 110.798866,223.853241 
	C111.188705,223.500366 111.578545,223.147491 112.655060,222.719360 
	C113.115501,222.720932 113.575935,222.722504 114.475975,223.078537 
	C115.546814,223.237122 116.617645,223.395691 117.898071,224.273300 
M126.742416,34.156448 
	C126.742416,30.930313 126.742416,27.704176 126.742416,24.479614 
	C112.563286,24.479614 99.294090,24.479614 85.118156,24.278913 
	C81.403122,24.350660 77.688087,24.422405 73.065788,24.311813 
	C70.732872,24.300394 68.379478,24.484930 66.070595,24.243595 
	C56.125610,23.204090 47.571873,25.850771 41.072453,33.694508 
	C38.588268,36.692516 35.720665,37.721569 31.909868,37.328503 
	C26.904537,36.812229 21.858393,36.691647 16.489365,36.381218 
	C16.489365,45.109978 16.360472,52.927540 16.624712,60.731792 
	C16.665573,61.938515 18.380747,63.941120 19.540218,64.114594 
	C25.610193,65.022743 31.744438,65.549049 37.872566,65.974312 
	C38.908230,66.046188 40.238461,65.200363 41.066280,64.399765 
	C46.398125,59.243294 51.370251,53.676327 57.018200,48.904217 
	C59.281475,46.991909 62.901302,46.192169 66.004364,45.876804 
	C71.284576,45.340179 76.644440,45.587288 82.847145,45.711861 
	C85.241570,45.649170 87.635986,45.586479 90.806038,45.706562 
	C91.861267,45.648998 92.916504,45.591434 94.893890,45.733456 
	C105.705452,45.733456 116.517006,45.733456 127.561539,45.733456 
	C127.323441,42.564346 127.151886,40.280945 127.124748,37.313358 
	C127.003242,36.870884 126.881737,36.428413 126.789482,35.505447 
	C126.789482,35.505447 126.596390,35.064491 126.742416,34.156448 
M45.268520,274.664978 
	C48.143864,276.191223 51.019207,277.717468 54.459892,279.870514 
	C55.114021,279.994415 55.768009,280.225800 56.422295,280.226624 
	C76.749260,280.252380 97.076279,280.265839 117.403221,280.235229 
	C118.546356,280.233521 119.740723,279.986420 120.822784,279.603546 
	C125.521744,277.940948 128.468369,274.087524 128.813843,269.654755 
	C129.040146,266.750885 126.985115,262.718292 124.634552,260.838043 
	C122.386810,259.040100 118.437080,258.862610 115.232849,258.853149 
	C99.075050,258.805298 82.916344,259.154846 66.758064,259.147461 
	C55.024899,259.142090 44.749149,248.612335 44.749031,236.945938 
	C44.748768,210.952179 44.761456,184.958435 44.749119,158.964676 
	C44.745499,151.333771 39.127110,144.691788 32.941189,144.922958 
	C27.308594,145.133438 21.789349,152.226334 21.774431,159.316895 
	C21.754450,168.814560 21.756786,178.312317 21.755592,187.810028 
	C21.753412,205.139221 21.773678,222.468460 21.744934,239.797607 
	C21.736492,244.886276 20.376741,245.977005 15.378065,245.092972 
	C14.630306,244.960693 13.914065,244.650223 12.945461,244.347977 
	C10.997252,251.035889 12.986985,256.605042 15.848980,262.163391 
	C17.807367,265.966827 20.275753,267.869415 24.831810,267.652649 
	C31.112736,267.353851 37.899189,266.129364 42.323906,272.752655 
	C42.796787,273.460480 44.068108,273.634949 45.268520,274.664978 
z"/>
<path fill="#181B2E" opacity="1.000000" stroke="none" 
	d="
M351.001007,65.942421 
	C352.464600,68.973999 353.928192,72.005585 355.475647,75.210892 
	C351.575684,77.469139 347.847778,79.627777 343.568542,82.107254 
	C341.684326,82.090973 340.351471,81.753860 338.951477,81.097839 
	C334.772980,76.164993 317.007446,76.640549 312.531799,81.576019 
	C307.388092,81.623825 302.699188,81.567787 297.898926,81.235588 
	C296.172882,78.729713 294.825134,78.352280 293.620392,81.602142 
	C292.506622,81.632835 291.758911,81.568573 291.010742,81.126595 
	C291.010254,78.687439 291.010254,76.626015 291.010254,74.275360 
	C286.059082,75.060989 287.328247,78.718796 286.558960,81.610565 
	C284.092102,81.641838 282.053162,81.576813 280.009216,81.172333 
	C279.617401,79.837753 279.230560,78.842644 278.843719,77.847534 
	C277.447235,78.868225 276.050751,79.888908 274.666138,80.854599 
	C274.678009,80.799614 274.728821,80.903839 274.457214,80.590851 
	C273.287598,79.334610 272.199677,77.460602 271.522369,77.598816 
	C267.046539,78.512154 264.294281,75.546150 260.855591,73.819008 
	C259.358887,73.067268 256.409302,74.168503 254.683380,75.293312 
	C253.605850,75.995529 253.581024,78.313026 253.083801,79.905678 
	C253.493469,80.044014 253.903137,80.182343 254.312805,80.320679 
	C255.875351,79.404930 257.437866,78.489182 259.032776,77.554459 
	C259.032776,82.394958 259.032776,86.703102 258.970703,91.366196 
	C257.526367,95.233017 255.030548,98.720398 254.952667,102.260956 
	C254.595581,118.499229 254.914856,134.752380 254.888275,151.457245 
	C254.860947,156.942963 254.936661,161.971634 254.917587,167.456665 
	C254.883789,172.275299 254.944763,176.637589 254.905304,181.392502 
	C254.871552,182.856781 254.938217,183.928436 254.908417,185.460052 
	C254.796204,189.722656 254.996613,193.541107 254.720093,197.324707 
	C254.128494,205.418869 255.782547,212.703323 261.322449,218.961456 
	C261.690216,220.376236 262.058014,222.265839 262.950928,222.559662 
	C264.507904,223.071991 266.388275,222.601364 268.502136,222.563385 
	C270.290070,222.938736 271.708954,223.293442 273.029175,224.002853 
	C270.371643,226.731125 267.812744,229.104706 265.253876,231.478287 
	C265.479858,231.769455 265.705841,232.060638 265.931824,232.351822 
	C267.347595,231.764832 268.763397,231.177841 271.655731,229.978653 
	C271.001038,235.074417 271.602173,239.903061 269.630859,243.187973 
	C267.460358,246.804825 267.843109,249.018143 269.663757,251.736298 
	C271.482239,250.671875 273.175476,249.680756 274.895111,248.674194 
	C272.497375,243.362656 275.884888,238.372894 281.869843,239.344849 
	C286.126068,240.036087 287.497559,238.422607 288.197388,234.572418 
	C288.469421,233.075653 290.361053,230.831055 291.644470,230.739273 
	C297.446228,230.324356 303.294312,230.557953 309.656006,230.557953 
	C310.764893,228.410614 313.455688,225.575958 308.837769,222.533371 
	C308.865417,220.406418 308.948059,218.703415 309.030731,217.000427 
	C309.846741,216.862717 310.707306,216.847000 311.471741,216.568008 
	C317.622498,214.323181 317.557343,214.338531 320.712494,220.506363 
	C321.127930,221.318466 322.576477,221.555130 323.447571,222.193420 
	C324.460541,222.935699 325.458252,223.751617 326.233795,224.718994 
	C326.382904,224.904968 325.513031,226.447205 325.045288,226.483307 
	C323.829163,226.577164 322.049164,226.624954 321.435669,225.897324 
	C319.637787,223.764786 317.951111,222.709137 315.721436,225.006348 
	C313.118195,227.688431 315.380981,229.306412 317.096405,231.203445 
	C317.853271,232.040405 318.216980,233.497910 318.242767,234.684906 
	C318.351898,239.709351 319.500702,240.823196 325.263428,240.894043 
	C325.036682,240.410126 324.943298,239.875549 324.625946,239.588486 
	C322.706757,237.852356 319.787933,236.418854 322.021088,233.181137 
	C323.474823,231.073410 329.205200,231.858963 331.550659,234.116791 
	C333.007996,235.519638 334.684662,236.694672 336.729797,238.391663 
	C336.162903,248.405762 330.413818,254.301407 321.612885,258.146454 
	C316.791992,258.432678 312.396057,258.708893 307.950836,258.643127 
	C305.666718,254.240616 304.272858,256.182556 302.545410,259.085083 
	C298.060638,259.115173 294.030365,259.048096 290.099274,258.640564 
	C291.921509,257.202271 293.513092,255.655563 295.396179,255.104004 
	C298.874420,254.085220 299.959808,252.068573 297.974213,249.287506 
	C295.738129,246.155563 296.349945,244.052368 298.794678,241.491013 
	C299.719604,240.521957 299.500977,238.461411 299.803650,236.898407 
	C297.134491,237.569061 294.192627,237.750381 291.870789,239.044281 
	C289.416962,240.411713 290.021332,242.573196 292.273834,244.182602 
	C296.263367,247.033096 294.529358,249.047073 291.511047,251.428360 
	C288.744202,253.611267 286.484314,256.436768 283.591553,259.075500 
	C281.788086,259.103882 280.394104,259.035889 278.890991,258.700928 
	C277.854462,258.613678 276.927155,258.793427 275.544861,259.070068 
	C273.444702,259.187531 271.792419,259.317108 270.155457,259.210754 
	C260.578064,258.588257 251.242859,257.237396 244.008423,249.599457 
	C243.620834,248.132568 243.236877,247.030075 242.852905,245.927551 
	C242.163712,246.467316 241.474518,247.007080 240.473633,247.380768 
	C238.685333,245.446289 237.168335,243.709885 235.739197,241.903931 
	C229.940460,234.576248 229.695129,225.771271 229.313507,216.648346 
	C229.446182,202.467560 229.446182,188.680847 229.446182,174.373810 
	C223.824371,174.373810 217.878494,174.348709 211.932953,174.382828 
	C208.120789,174.404709 206.539154,176.034760 206.611252,180.178131 
	C206.866272,194.833603 206.556595,209.499222 206.839691,224.153671 
	C206.921890,228.408783 208.271057,232.639420 209.162811,237.269714 
	C210.797729,241.460892 212.173370,245.324631 213.847809,249.054230 
	C217.917557,258.119080 225.620789,263.914276 233.008362,269.972992 
	C233.114838,272.991119 234.408371,276.265320 230.572021,278.286438 
	C229.894562,278.643372 230.032181,280.547363 229.793427,281.736938 
	C230.988693,281.833466 232.194122,282.073944 233.376648,281.990295 
	C234.871414,281.884552 236.347504,281.514771 237.831635,281.258850 
	C237.444000,282.851105 237.451263,284.721130 236.573639,285.968719 
	C235.341141,287.720764 233.451157,289.010315 231.842377,290.497681 
	C230.405182,287.401917 226.160095,288.155151 224.586334,284.173218 
	C222.666595,279.315918 218.512756,275.321625 215.170624,271.075745 
	C214.816513,270.625885 213.281464,270.681152 212.540115,271.027802 
	C206.664246,273.775513 204.192612,272.126740 204.531448,265.595886 
	C204.563171,264.984650 204.362305,264.361298 204.355774,264.317932 
	C200.355881,266.254395 196.518768,268.400665 192.467911,270.008331 
	C185.715363,272.688171 185.167450,266.504333 182.653976,262.122498 
	C182.700836,240.375381 183.109009,219.405151 183.177780,198.433807 
	C183.251480,175.955032 183.005814,153.475220 182.984833,130.625824 
	C182.996323,129.504944 182.922516,128.754059 182.948196,127.633537 
	C182.978546,126.507866 182.909409,125.751854 182.933136,124.535721 
	C183.063904,118.051453 183.101822,112.027298 183.483032,105.944244 
	C187.432953,103.423386 186.312607,101.573410 182.970139,99.630005 
	C182.938065,98.507896 183.000046,97.754745 183.062027,97.001595 
	C184.377594,94.897644 185.583221,92.714287 187.032990,90.707283 
	C189.562256,87.205910 192.241852,83.813141 194.928436,80.282875 
	C194.258820,79.704269 192.665237,78.327278 190.595383,76.538750 
	C192.812637,75.364296 194.190140,74.634659 196.206009,73.566879 
	C186.137985,67.927818 185.223434,60.589989 191.128525,51.843868 
	C193.962952,54.212914 197.035706,56.284676 199.460678,58.946583 
	C201.921967,61.648380 203.771973,61.941967 206.435852,59.356464 
	C207.354523,58.464802 209.162506,58.489395 210.906342,58.508583 
	C209.712860,63.945293 208.177292,68.968864 206.303680,74.032646 
	C199.628128,76.959877 198.689682,83.490524 198.885727,88.651566 
	C199.029510,92.437050 201.765381,97.861084 207.729965,99.038528 
	C208.982849,100.738121 210.010284,102.216446 211.263336,103.803001 
	C211.643509,103.848305 211.798019,103.785378 212.323532,103.756264 
	C213.799423,104.075775 214.904312,104.361488 216.385696,104.635406 
	C217.498596,104.509270 218.235016,104.394936 219.249603,104.362679 
	C220.407028,104.086456 221.286255,103.728142 222.514481,103.275848 
	C228.833801,100.743858 229.290161,95.325256 230.286285,89.951416 
	C231.386383,88.729073 232.772156,87.624092 232.850952,86.432671 
	C233.114334,82.450401 235.017960,80.667076 238.905273,80.923714 
	C240.837112,81.051247 242.855545,81.786247 244.656967,81.405380 
	C246.302582,81.057442 247.912979,79.775688 249.143631,78.518547 
	C249.887741,77.758415 250.484924,75.570297 250.093231,75.226822 
	C248.983215,74.253471 247.376785,73.709839 245.880981,73.342758 
	C243.200027,72.684822 240.457001,72.279808 236.751221,71.583244 
	C241.680862,65.787796 245.651382,61.119919 249.846390,56.188137 
	C252.084335,57.407127 254.376480,58.655640 256.911957,60.036686 
	C257.856232,52.226536 260.148621,51.332596 267.224670,52.386459 
	C273.525452,53.324852 280.139160,54.885162 286.534760,51.396942 
	C287.771057,50.722645 290.598816,52.360115 292.334442,53.483990 
	C293.108154,53.984989 292.994934,55.855682 293.284271,57.104733 
	C292.896118,57.250942 292.507965,57.397156 292.119812,57.543369 
	C290.735565,56.604153 289.351318,55.664936 287.643555,54.506214 
	C287.330872,55.795700 287.212616,56.607605 286.929108,57.356979 
	C286.671173,58.038647 286.233673,58.652367 286.230499,58.658081 
	C283.874023,57.945995 281.250427,56.359573 280.326416,57.049477 
	C278.712982,58.254166 277.849701,60.779922 277.276154,62.914375 
	C277.026245,63.844337 278.004761,65.690521 278.919098,66.160934 
	C279.644775,66.534286 281.124786,65.452904 282.265320,65.005775 
	C284.084412,64.292633 285.867340,63.466415 287.727112,62.884869 
	C289.130066,62.446178 290.925659,62.742237 292.033722,61.972816 
	C296.562134,58.828362 300.983032,55.749405 306.985626,57.164280 
	C307.429108,57.268806 308.174744,56.182140 308.750763,55.619442 
	C313.720764,50.764599 318.323700,50.081245 324.639648,52.789803 
	C326.613312,53.636200 328.973419,53.581390 331.464478,54.062027 
	C337.067169,59.927124 342.646301,65.204407 351.001007,65.942421 
M224.403336,152.313812 
	C231.767441,149.018341 234.600494,143.902725 233.743515,135.448395 
	C233.157547,129.667633 227.277817,122.685753 222.189743,121.728851 
	C215.381180,120.448387 209.797089,122.819450 206.740616,129.416687 
	C205.315170,132.493454 205.772964,136.404861 205.139236,139.894760 
	C204.071030,145.777283 209.746063,152.894806 215.630051,152.810837 
	C218.287231,152.772919 220.942734,152.617706 224.403336,152.313812 
M197.309158,265.447693 
	C197.379562,264.778046 197.575562,263.537933 197.502121,263.521790 
	C195.357224,263.049591 193.185471,262.699493 191.018005,262.329865 
	C190.857498,262.993103 190.696991,263.656342 190.536469,264.319580 
	C192.586807,264.785461 194.637146,265.251312 197.309158,265.447693 
M190.491837,63.349770 
	C191.884201,64.079468 193.276581,64.809166 194.668945,65.538864 
	C194.813507,64.682716 194.958069,63.826569 195.102631,62.970421 
	C193.558319,62.873585 192.013992,62.776749 190.491837,63.349770 
M271.009094,67.075478 
	C269.811432,67.227226 268.613800,67.378983 267.416138,67.530731 
	C267.695129,68.385132 267.974121,69.239540 268.253113,70.093956 
	C269.268951,69.271698 270.284790,68.449448 271.009094,67.075478 
M252.180984,234.614487 
	C250.860260,233.868469 249.539536,233.122467 248.218811,232.376450 
	C247.991562,233.042542 247.764313,233.708618 247.537048,234.374710 
	C249.040588,234.643265 250.544128,234.911819 252.180984,234.614487 
M257.477692,247.689545 
	C257.312866,248.114197 257.148041,248.538849 256.983185,248.963501 
	C257.382507,248.991714 257.781830,249.019913 258.181152,249.048126 
	C258.075684,248.648575 257.970184,248.249023 257.477692,247.689545 
M256.530701,242.862503 
	C256.872650,242.760132 257.216736,242.663406 257.549530,242.536896 
	C257.564453,242.531219 257.476593,242.255173 257.436646,242.105087 
	C257.102905,242.235535 256.769135,242.365982 256.530701,242.862503 
M263.083435,237.294312 
	C263.049896,237.103378 263.016357,236.912445 262.982849,236.721512 
	C262.937012,236.909393 262.891174,237.097260 263.083435,237.294312 
M305.846649,64.262352 
	C305.960571,64.104668 306.074524,63.946991 306.188446,63.789310 
	C306.021851,63.888756 305.855225,63.988197 305.846649,64.262352 
z"/>
<path fill="#69EFD1" opacity="1.000000" stroke="none" 
	d="
M44.969032,274.056824 
	C44.068108,273.634949 42.796787,273.460480 42.323906,272.752655 
	C37.899189,266.129364 31.112736,267.353851 24.831810,267.652649 
	C20.275753,267.869415 17.807367,265.966827 15.848980,262.163391 
	C12.986985,256.605042 10.997252,251.035889 12.945461,244.347977 
	C13.914065,244.650223 14.630306,244.960693 15.378065,245.092972 
	C20.376741,245.977005 21.736492,244.886276 21.744934,239.797607 
	C21.773678,222.468460 21.753412,205.139221 21.755592,187.810028 
	C21.756786,178.312317 21.754450,168.814560 21.774431,159.316895 
	C21.789349,152.226334 27.308594,145.133438 32.941189,144.922958 
	C39.127110,144.691788 44.745499,151.333771 44.749119,158.964676 
	C44.761456,184.958435 44.748768,210.952179 44.749031,236.945938 
	C44.749149,248.612335 55.024899,259.142090 66.758064,259.147461 
	C82.916344,259.154846 99.075050,258.805298 115.232849,258.853149 
	C118.437080,258.862610 122.386810,259.040100 124.634552,260.838043 
	C126.985115,262.718292 129.040146,266.750885 128.813843,269.654755 
	C128.468369,274.087524 125.521744,277.940948 120.822784,279.603546 
	C119.740723,279.986420 118.546356,280.233521 117.403221,280.235229 
	C97.076279,280.265839 76.749260,280.252380 56.422295,280.226624 
	C55.768009,280.225800 55.114021,279.994415 54.197350,279.130371 
	C53.058365,276.566864 52.595932,273.765564 51.198074,273.173767 
	C49.542988,272.473053 47.081181,273.677917 44.969032,274.056824 
z"/>
<path fill="#67F1D2" opacity="1.000000" stroke="none" 
	d="
M206.641708,73.992439 
	C208.177292,68.968864 209.712860,63.945293 211.304642,58.523399 
	C212.933578,55.796535 214.541550,53.490921 216.073380,51.135777 
	C227.626450,33.373413 244.594009,25.170876 265.180267,24.597589 
	C284.957520,24.046833 304.764343,24.587431 324.558167,24.585794 
	C330.496887,24.585304 335.525482,25.981432 339.322937,31.156950 
	C342.635162,35.671120 347.141968,37.901928 353.249237,37.642460 
	C363.985992,37.186306 368.439270,40.937962 368.700867,49.302631 
	C368.999878,58.863892 363.074615,65.187531 353.316284,65.718552 
	C352.818176,65.745667 352.318909,65.751175 351.410583,65.854584 
	C342.646301,65.204407 337.067169,59.927124 331.339722,53.743851 
	C326.519379,47.682392 321.025635,45.165798 313.645355,45.385300 
	C297.518921,45.864929 281.349457,45.143696 265.238892,45.852669 
	C242.271790,46.863373 225.490311,67.191666 229.973190,90.029182 
	C229.290161,95.325256 228.833801,100.743858 222.307739,103.068375 
	C220.825150,103.396782 219.898285,103.838684 218.971420,104.280594 
	C218.235016,104.394936 217.498596,104.509270 216.375717,104.293022 
	C215.442444,102.848335 215.179855,101.339569 214.291458,100.699837 
	C212.256256,99.234299 209.915527,98.193016 207.440826,96.620834 
	C207.002426,88.838951 206.822067,81.415695 206.641708,73.992439 
z"/>
<path fill="#69EED0" opacity="1.000000" stroke="none" 
	d="
M182.963226,96.542091 
	C183.000046,97.754745 182.938065,98.507896 182.873688,100.051888 
	C182.960785,102.562866 183.050262,104.282997 183.139740,106.003136 
	C183.101822,112.027298 183.063904,118.051453 182.676895,124.647888 
	C182.501434,126.147842 182.675064,127.075516 182.848694,128.003189 
	C182.922516,128.754059 182.996323,129.504944 182.652740,130.663269 
	C179.782654,131.424774 177.329956,131.778809 174.137405,132.239624 
	C174.707016,133.503647 175.580627,134.779816 175.825455,136.166992 
	C176.084106,137.632568 175.851852,140.520081 175.648895,140.536804 
	C170.373749,140.970871 171.039581,146.738556 168.972931,148.431839 
	C165.621063,147.070953 163.050018,146.027100 160.478958,144.983231 
	C160.498245,130.759476 160.517532,116.535713 160.709564,101.626862 
	C160.559418,100.315941 160.236542,99.690102 159.913651,99.064262 
	C159.623672,99.740387 159.333679,100.416504 159.043701,101.092628 
	C154.867615,110.610016 150.686111,120.125038 146.517685,129.645782 
	C144.330841,134.640564 142.166977,139.645386 139.370178,144.887375 
	C132.260406,145.955933 129.866318,148.635880 129.927567,155.002258 
	C121.239075,156.730179 120.544136,156.283691 121.686302,148.457031 
	C122.337257,143.996384 119.601173,143.995178 116.648338,143.886139 
	C122.091942,131.074280 127.521416,118.256401 132.983521,105.452446 
	C137.481903,94.907600 141.976120,84.360603 146.550659,73.848717 
	C151.382462,62.745670 156.021042,51.538097 161.485474,40.751804 
	C162.351562,39.042198 167.122681,39.310905 170.535126,39.194069 
	C172.300278,43.333900 174.418060,46.873440 174.747391,50.572227 
	C175.227036,55.959141 177.870056,57.394398 182.555618,57.020676 
	C182.613419,61.037788 182.671219,65.054901 182.287811,69.549301 
	C177.893372,72.375801 178.107437,74.495361 182.552826,77.019753 
	C182.656693,83.374031 182.760559,89.728310 182.963226,96.542091 
z"/>
<path fill="#65EECE" opacity="1.000000" stroke="none" 
	d="
M261.558929,218.717865 
	C255.782547,212.703323 254.128494,205.418869 254.720093,197.324707 
	C254.996613,193.541107 254.796204,189.722656 255.196213,185.330353 
	C255.388901,183.493759 255.197327,182.246811 255.005753,180.999878 
	C254.944763,176.637589 254.883789,172.275299 255.282867,167.442108 
	C256.644531,165.953857 257.896088,165.072556 258.358032,163.884262 
	C258.920441,162.437576 258.504333,160.611969 259.061462,159.161545 
	C260.825897,154.568161 260.108002,152.948853 254.991318,151.000198 
	C254.914856,134.752380 254.595581,118.499229 254.952667,102.260956 
	C255.030548,98.720398 257.526367,95.233017 259.249146,91.188744 
	C262.061646,88.814323 264.533569,86.972305 267.010101,85.518326 
	C268.192932,87.411583 269.070374,89.650246 270.607422,90.280708 
	C274.763733,91.985542 275.732544,94.597137 274.292603,98.550468 
	C273.743835,100.056992 273.231873,101.576942 272.897247,102.535057 
	C274.924896,104.061096 276.535522,105.273270 278.146118,106.485435 
	C278.077393,123.013718 278.008636,139.541992 277.531677,156.586060 
	C273.459625,159.269272 275.147766,160.702774 277.795807,162.004623 
	C277.864136,162.755783 277.932434,163.506927 277.609802,164.804108 
	C275.989349,168.988998 272.446564,172.768707 277.867432,176.002655 
	C277.931030,177.394241 277.994629,178.785828 277.637665,180.693726 
	C274.212830,184.225754 272.979340,195.760437 275.465240,198.807251 
	C276.000092,199.462769 277.151398,199.615326 278.018738,199.999542 
	C281.718445,200.607483 285.418152,201.215424 289.688843,202.205215 
	C291.506653,202.397705 292.753540,202.208328 294.000397,202.018951 
	C298.766388,202.018936 303.532349,202.018936 308.849030,202.018936 
	C308.849030,207.190414 308.849030,211.636978 308.939880,216.541992 
	C308.948059,218.703415 308.865417,220.406418 308.466034,222.739960 
	C296.475464,223.463058 284.801666,223.555603 273.127838,223.648148 
	C271.708954,223.293442 270.290070,222.938736 268.262299,222.352570 
	C265.621918,220.986694 263.590424,219.852280 261.558929,218.717865 
M267.949768,151.796616 
	C267.376495,152.372086 266.803192,152.947540 266.229919,153.523010 
	C266.568268,153.772079 266.906616,154.021149 267.244995,154.270218 
	C267.593536,153.558624 267.942078,152.847031 267.949768,151.796616 
z"/>
<path fill="#69F0D2" opacity="1.000000" stroke="none" 
	d="
M322.037811,258.136444 
	C330.413818,254.301407 336.162903,248.405762 337.101074,238.405670 
	C337.139923,215.858521 337.294189,193.717148 337.356628,171.575500 
	C337.360168,170.325119 336.609283,169.072617 336.098999,167.018524 
	C334.849365,160.040573 333.706360,159.192947 327.473419,158.970261 
	C322.684052,158.799133 317.896515,158.380112 313.133026,157.848679 
	C312.195984,157.744141 310.675568,156.642227 310.655365,155.963638 
	C310.622711,154.865997 311.370087,153.470291 312.232697,152.695526 
	C313.157623,151.864777 314.670990,151.734100 315.798645,151.076797 
	C322.947327,146.909897 332.000854,151.529617 338.861359,146.058090 
	C339.073944,145.888565 339.555695,146.094955 339.832947,145.961685 
	C341.257721,145.276871 342.656616,144.538239 344.064575,143.818405 
	C352.691437,144.558334 358.246460,150.152832 358.884094,159.004730 
	C359.027374,160.993744 359.225677,162.985870 359.228790,164.976822 
	C359.260773,185.464462 359.183868,205.952621 359.311249,226.439560 
	C359.347839,232.326035 359.945801,238.209030 360.297852,244.292374 
	C365.517120,244.630035 369.770630,244.998459 370.172211,251.039871 
	C370.586395,257.271667 367.896027,263.129150 362.695190,265.560699 
	C361.355408,266.187073 359.856567,267.052155 358.492340,266.953857 
	C349.432983,266.301025 342.461548,270.462097 336.044159,276.157104 
	C335.339569,276.782379 334.250580,276.974548 332.710754,277.095276 
	C327.145264,268.441803 327.274170,267.873383 333.772400,266.033020 
	C335.118652,265.651733 337.201538,264.368561 337.202545,263.499023 
	C337.204407,261.891602 336.221619,259.954681 335.016327,258.837738 
	C334.541565,258.397797 332.194336,259.538910 331.006592,260.388824 
	C327.165558,263.137329 323.987488,262.415680 322.037811,258.136444 
z"/>
<path fill="#68F2D2" opacity="1.000000" stroke="none" 
	d="
M321.612885,258.146454 
	C323.987488,262.415680 327.165558,263.137329 331.006592,260.388824 
	C332.194336,259.538910 334.541565,258.397797 335.016327,258.837738 
	C336.221619,259.954681 337.204407,261.891602 337.202545,263.499023 
	C337.201538,264.368561 335.118652,265.651733 333.772400,266.033020 
	C327.274170,267.873383 327.145264,268.441803 332.363098,277.095398 
	C328.830933,278.332306 325.029114,280.071564 321.201630,280.129944 
	C302.708618,280.411865 284.204834,280.468140 265.712708,280.148895 
	C254.170502,279.949646 243.580246,275.983124 233.359497,270.029816 
	C225.620789,263.914276 217.917557,258.119080 213.847809,249.054230 
	C212.173370,245.324631 210.797729,241.460892 209.182251,236.900818 
	C210.669312,233.695221 212.433075,229.086899 213.819443,229.197769 
	C218.239151,229.551208 217.920822,226.470322 217.734192,224.565445 
	C217.458649,221.753159 216.198120,218.956573 214.965439,216.337631 
	C213.074234,212.319504 214.281967,209.977875 218.628021,209.469131 
	C220.932144,209.199417 223.184738,208.489212 225.769547,207.908432 
	C226.457611,210.610092 223.188614,215.637207 229.180817,217.042404 
	C229.695129,225.771271 229.940460,234.576248 235.739197,241.903931 
	C237.168335,243.709885 238.685333,245.446289 240.652283,247.614532 
	C242.099121,248.664215 243.055573,249.314026 244.012039,249.963837 
	C251.242859,257.237396 260.578064,258.588257 270.155457,259.210754 
	C271.792419,259.317108 273.444702,259.187531 275.913818,259.167480 
	C277.491882,259.101318 278.246033,259.034607 279.000153,258.967896 
	C280.394104,259.035889 281.788086,259.103882 284.011841,259.174255 
	C286.561127,259.111450 288.280609,259.046234 290.000122,258.981018 
	C294.030365,259.048096 298.060638,259.115173 302.954376,259.184021 
	C305.211945,259.118896 306.606018,259.052002 308.000092,258.985077 
	C312.396057,258.708893 316.791992,258.432678 321.612885,258.146454 
z"/>
<path fill="#64E9CB" opacity="1.000000" stroke="none" 
	d="
M160.377167,145.442886 
	C163.050018,146.027100 165.621063,147.070953 168.972931,148.431839 
	C171.039581,146.738556 170.373749,140.970871 175.648895,140.536804 
	C175.851852,140.520081 176.084106,137.632568 175.825455,136.166992 
	C175.580627,134.779816 174.707016,133.503647 174.137405,132.239624 
	C177.329956,131.778809 179.782654,131.424774 182.567444,131.033295 
	C183.005814,153.475220 183.251480,175.955032 183.177780,198.433807 
	C183.109009,219.405151 182.700836,240.375381 182.461823,261.760559 
	C176.364563,262.355591 170.246414,262.654510 164.131729,262.595276 
	C163.161667,262.585846 161.694733,261.126312 161.353149,260.052368 
	C160.660370,257.874298 160.294281,255.501633 160.290939,253.208466 
	C160.238831,217.439896 160.266281,181.671204 160.377167,145.442886 
z"/>
<path fill="#6BEDD1" opacity="1.000000" stroke="none" 
	d="
M116.411247,144.139496 
	C119.601173,143.995178 122.337257,143.996384 121.686302,148.457031 
	C120.544136,156.283691 121.239075,156.730179 129.927567,155.002258 
	C129.866318,148.635880 132.260406,145.955933 139.162933,145.152466 
	C136.952759,151.352264 134.225632,157.488373 131.753967,163.725708 
	C130.821686,166.078369 130.480469,168.665237 129.647522,171.700119 
	C126.204063,175.603989 126.491051,178.530441 130.480133,181.010864 
	C130.550507,191.698151 130.620880,202.385437 130.293610,213.647095 
	C125.867447,215.837677 121.838943,217.453903 117.556152,218.960388 
	C116.213364,220.141785 115.124863,221.432922 114.036377,222.724075 
	C113.575935,222.722504 113.115501,222.720932 112.172218,222.580551 
	C111.290077,222.258026 110.890770,222.074310 110.491463,221.890610 
	C110.405556,221.448929 110.319649,221.007263 110.283279,219.968613 
	C110.894165,218.168457 111.455536,216.965271 112.543846,214.632706 
	C109.357811,215.915115 107.344574,216.725479 105.966255,217.280273 
	C103.962883,215.964035 102.462318,214.978149 100.545853,213.996552 
	C95.866600,213.713211 91.459320,211.983566 87.748665,216.091278 
	C87.200455,216.698120 84.244469,215.847366 82.972229,214.903275 
	C81.339424,213.691574 80.283066,211.703110 78.983749,209.631104 
	C78.803734,205.738693 79.385757,201.840393 74.446701,200.993195 
	C74.378624,195.637878 74.310555,190.282578 74.747665,184.466705 
	C81.841629,185.061417 85.797112,182.355057 86.255020,174.098068 
	C88.340576,176.901733 89.354340,178.264557 90.838295,180.259476 
	C91.994049,178.644058 92.715240,177.215439 93.815559,176.196091 
	C95.489609,174.645248 97.426407,173.378021 99.251617,171.990326 
	C100.100464,173.694351 100.949310,175.398376 102.206001,177.921143 
	C107.104034,166.164215 111.639091,155.278534 116.411247,144.139496 
z"/>
<path fill="#69EED0" opacity="1.000000" stroke="none" 
	d="
M126.760231,35.985939 
	C126.881737,36.428413 127.003242,36.870884 126.666771,37.646778 
	C123.269646,38.411201 120.330498,38.842205 116.474602,39.407642 
	C116.320732,39.200520 115.313942,37.845314 114.042816,36.134300 
	C108.779510,42.944355 101.334503,41.296913 94.315804,42.644039 
	C94.237755,43.299541 94.104744,44.416710 93.971725,45.533875 
	C92.916504,45.591434 91.861267,45.648998 90.375725,45.291832 
	C87.447395,41.583851 84.708389,41.799541 81.970840,45.505085 
	C76.644440,45.587288 71.284576,45.340179 66.004364,45.876804 
	C62.901302,46.192169 59.281475,46.991909 57.018200,48.904217 
	C51.370251,53.676327 46.398125,59.243294 41.066280,64.399765 
	C40.238461,65.200363 38.908230,66.046188 37.872566,65.974312 
	C31.744438,65.549049 25.610193,65.022743 19.540218,64.114594 
	C18.380747,63.941120 16.665573,61.938515 16.624712,60.731792 
	C16.360472,52.927540 16.489365,45.109978 16.489365,36.381218 
	C21.858393,36.691647 26.904537,36.812229 31.909868,37.328503 
	C35.720665,37.721569 38.588268,36.692516 41.072453,33.694508 
	C47.571873,25.850771 56.125610,23.204090 66.070595,24.243595 
	C68.379478,24.484930 70.732872,24.300394 73.521065,24.761726 
	C74.175713,26.545794 74.375084,27.879950 74.548553,29.040804 
	C77.579384,28.626863 80.092499,28.643394 82.317963,27.851532 
	C83.769730,27.334970 84.803741,25.644323 86.024895,24.479614 
	C99.294090,24.479614 112.563286,24.479614 126.742416,24.479614 
	C126.742416,27.704176 126.742416,30.930313 126.614761,34.727921 
	C126.452225,35.575512 126.543274,35.804363 126.760231,35.985939 
z"/>
<path fill="#66F1D0" opacity="1.000000" stroke="none" 
	d="
M67.427368,155.182251 
	C66.952133,154.322876 66.476898,153.463486 66.260345,152.115433 
	C67.050293,151.017685 67.815483,150.489731 68.061020,149.781586 
	C68.488777,148.547897 68.596199,147.203125 68.837906,145.904938 
	C67.662605,146.365524 66.480453,146.809662 65.315491,147.295044 
	C64.871178,147.480194 64.466293,147.759964 64.043442,147.996613 
	C55.486584,131.392456 46.903854,114.801559 38.388424,98.176193 
	C35.787296,93.097801 36.031761,87.324554 38.751812,84.592278 
	C41.752377,81.578224 49.696815,79.929398 53.749302,82.041420 
	C55.634327,83.023827 57.322044,85.032356 58.310261,86.976715 
	C62.752926,95.717865 66.896713,104.610580 71.186386,113.430092 
	C72.127022,115.364014 73.223511,117.222130 74.048080,119.783340 
	C72.250938,123.962746 73.037010,125.996002 77.235161,125.913132 
	C81.196571,133.673981 85.157990,141.434830 88.863419,149.736603 
	C87.381401,152.134186 86.282341,154.094421 84.882919,155.809616 
	C84.009377,156.880280 82.149811,158.569763 81.641296,158.295715 
	C76.301262,155.417679 73.757332,159.325287 70.817680,162.386017 
	C70.128723,161.191711 69.439758,159.997406 69.025650,158.328979 
	C69.568626,157.212433 69.836754,156.570023 70.104881,155.927597 
	C69.212379,155.679153 68.319870,155.430695 67.427368,155.182251 
M79.697914,145.019882 
	C80.217285,145.565384 80.736656,146.110886 81.256020,146.656387 
	C81.555656,146.347107 81.855301,146.037842 82.154945,145.728561 
	C81.463150,145.360931 80.771355,144.993301 79.697914,145.019882 
z"/>
<path fill="#67EED2" opacity="1.000000" stroke="none" 
	d="
M278.446716,106.218781 
	C276.535522,105.273270 274.924896,104.061096 272.897247,102.535057 
	C273.231873,101.576942 273.743835,100.056992 274.292603,98.550468 
	C275.732544,94.597137 274.763733,91.985542 270.607422,90.280708 
	C269.070374,89.650246 268.192932,87.411583 267.294556,85.284126 
	C271.721008,83.611855 275.867615,82.561829 280.014191,81.511803 
	C282.053162,81.576813 284.092102,81.641838 286.954590,81.708237 
	C288.855804,81.641190 289.933502,81.572754 291.011230,81.504318 
	C291.758911,81.568573 292.506622,81.632835 294.015472,81.701950 
	C295.854523,81.641800 296.932404,81.576775 298.010284,81.511757 
	C302.699188,81.567787 307.388092,81.623825 312.990662,81.682274 
	C322.275726,81.595375 330.647186,81.506058 339.018616,81.416740 
	C340.351471,81.753860 341.684326,82.090973 343.430298,82.454575 
	C349.740875,85.903732 352.431030,91.093437 351.011871,96.310181 
	C349.752777,100.938477 345.055420,103.738716 338.266968,103.751068 
	C320.850403,103.782761 303.432861,103.677223 286.018127,103.859482 
	C283.587524,103.884918 281.170593,105.222145 278.446716,106.218781 
z"/>
<path fill="#62EBCD" opacity="1.000000" stroke="none" 
	d="
M343.745789,143.619995 
	C342.656616,144.538239 341.257721,145.276871 339.832947,145.961685 
	C339.555695,146.094955 339.073944,145.888565 338.861359,146.058090 
	C332.000854,151.529617 322.947327,146.909897 315.798645,151.076797 
	C314.670990,151.734100 313.157623,151.864777 312.232697,152.695526 
	C311.370087,153.470291 310.622711,154.865997 310.655365,155.963638 
	C310.675568,156.642227 312.195984,157.744141 313.133026,157.848679 
	C317.896515,158.380112 322.684052,158.799133 327.473419,158.970261 
	C333.706360,159.192947 334.849365,160.040573 335.992493,166.607361 
	C333.985382,166.420975 331.986176,165.402771 329.961029,165.348282 
	C323.993134,165.187714 318.014801,165.474106 312.040802,165.463623 
	C305.180206,165.451584 299.770782,160.218964 299.794312,153.763245 
	C299.819031,146.986771 303.883820,142.749283 311.200897,142.740891 
	C321.942657,142.728577 332.684937,143.172195 343.745789,143.619995 
z"/>
<path fill="#67EED0" opacity="1.000000" stroke="none" 
	d="
M70.892899,162.731171 
	C73.757332,159.325287 76.301262,155.417679 81.641296,158.295715 
	C82.149811,158.569763 84.009377,156.880280 84.882919,155.809616 
	C86.282341,154.094421 87.381401,152.134186 88.917580,150.089447 
	C92.558487,157.011993 95.889229,164.122604 99.235794,171.611755 
	C97.426407,173.378021 95.489609,174.645248 93.815559,176.196091 
	C92.715240,177.215439 91.994049,178.644058 90.838295,180.259476 
	C89.354340,178.264557 88.340576,176.901733 86.255020,174.098068 
	C85.797112,182.355057 81.841629,185.061417 74.838921,184.007721 
	C74.332428,180.725708 74.606720,177.378586 74.051834,174.175079 
	C73.399750,170.410385 72.027855,166.770401 70.892899,162.731171 
z"/>
<path fill="#5AE2C5" opacity="1.000000" stroke="none" 
	d="
M78.978363,210.049301 
	C80.283066,211.703110 81.339424,213.691574 82.972229,214.903275 
	C84.244469,215.847366 87.200455,216.698120 87.748665,216.091278 
	C91.459320,211.983566 95.866600,213.713211 100.670685,214.318024 
	C100.828712,216.671265 100.445999,218.707336 100.063286,220.743408 
	C97.372421,221.435684 94.423203,223.187347 92.042732,222.606827 
	C86.538574,221.264526 83.538185,225.037033 79.576958,227.069427 
	C78.289391,227.730042 76.377174,227.173187 74.224792,227.173187 
	C74.224792,221.131943 74.224792,215.508102 74.659691,209.455170 
	C76.389175,209.367157 77.683769,209.708237 78.978363,210.049301 
z"/>
<path fill="#63E6CA" opacity="1.000000" stroke="none" 
	d="
M94.432808,45.633667 
	C94.104744,44.416710 94.237755,43.299541 94.315804,42.644039 
	C101.334503,41.296913 108.779510,42.944355 114.042816,36.134300 
	C115.313942,37.845314 116.320732,39.200520 116.474602,39.407642 
	C120.330498,38.842205 123.269646,38.411201 126.594559,37.988869 
	C127.151886,40.280945 127.323441,42.564346 127.561539,45.733456 
	C116.517006,45.733456 105.705452,45.733456 94.432808,45.633667 
z"/>
<path fill="#64E9CB" opacity="1.000000" stroke="none" 
	d="
M182.652283,56.560112 
	C177.870056,57.394398 175.227036,55.959141 174.747391,50.572227 
	C174.418060,46.873440 172.300278,43.333900 170.974548,39.304600 
	C174.738358,38.886021 178.509552,38.886021 182.748932,38.886021 
	C182.748932,44.850449 182.748932,50.474998 182.652283,56.560112 
z"/>
<path fill="#69EED0" opacity="1.000000" stroke="none" 
	d="
M117.810440,219.070145 
	C121.838943,217.453903 125.867447,215.837677 130.201508,214.106903 
	C131.748001,222.524277 127.575180,227.079605 119.330055,226.058517 
	C118.787354,225.991302 118.372429,224.892349 117.872734,223.469147 
	C117.835083,221.466705 117.822762,220.268417 117.810440,219.070145 
z"/>
<path fill="#64EACB" opacity="1.000000" stroke="none" 
	d="
M278.081970,199.535004 
	C277.151398,199.615326 276.000092,199.462769 275.465240,198.807251 
	C272.979340,195.760437 274.212830,184.225754 277.549500,181.103973 
	C277.969666,187.022079 278.057434,193.046265 278.081970,199.535004 
z"/>
<path fill="#63E6CA" opacity="1.000000" stroke="none" 
	d="
M85.571526,24.379263 
	C84.803741,25.644323 83.769730,27.334970 82.317963,27.851532 
	C80.092499,28.643394 77.579384,28.626863 74.548553,29.040804 
	C74.375084,27.879950 74.175713,26.545794 73.974701,24.852894 
	C77.688087,24.422405 81.403122,24.350660 85.571526,24.379263 
z"/>
<path fill="#52CEB5" opacity="1.000000" stroke="none" 
	d="
M100.296898,220.990143 
	C100.445999,218.707336 100.828712,216.671265 101.086578,214.313721 
	C102.462318,214.978149 103.962883,215.964035 105.966255,217.280273 
	C107.344574,216.725479 109.357811,215.915115 112.543846,214.632706 
	C111.455536,216.965271 110.894165,218.168457 110.190620,219.643585 
	C106.875793,220.355972 103.703156,220.796432 100.296898,220.990143 
M103.475616,219.478058 
	C103.475616,219.478058 103.527969,219.457764 103.475616,219.478058 
z"/>
<path fill="#5AE2C5" opacity="1.000000" stroke="none" 
	d="
M45.118774,274.360901 
	C47.081181,273.677917 49.542988,272.473053 51.198074,273.173767 
	C52.595932,273.765564 53.058365,276.566864 53.914680,278.816956 
	C51.019207,277.717468 48.143864,276.191223 45.118774,274.360901 
z"/>
<path fill="#69F0D2" opacity="1.000000" stroke="none" 
	d="
M78.983749,209.631104 
	C77.683769,209.708237 76.389175,209.367157 74.761841,208.994934 
	C74.371780,206.596970 74.314468,204.230194 74.351929,201.428299 
	C79.385757,201.840393 78.803734,205.738693 78.983749,209.631104 
z"/>
<path fill="#69EED0" opacity="1.000000" stroke="none" 
	d="
M130.583771,180.587463 
	C126.491051,178.530441 126.204063,175.603989 129.739258,172.118500 
	C130.264633,174.709427 130.476013,177.436752 130.583771,180.587463 
z"/>
<path fill="#64EACB" opacity="1.000000" stroke="none" 
	d="
M277.965454,175.553070 
	C272.446564,172.768707 275.989349,168.988998 277.522095,165.173706 
	C277.904663,168.365997 277.984039,171.734741 277.965454,175.553070 
z"/>
<path fill="#64E9CB" opacity="1.000000" stroke="none" 
	d="
M182.652786,76.588120 
	C178.107437,74.495361 177.893372,72.375801 182.195831,70.003021 
	C182.614288,72.038460 182.683517,74.097473 182.652786,76.588120 
z"/>
<path fill="#63E6CA" opacity="1.000000" stroke="none" 
	d="
M82.408997,45.608475 
	C84.708389,41.799541 87.447395,41.583851 89.987915,45.200447 
	C87.635986,45.586479 85.241570,45.649170 82.408997,45.608475 
z"/>
<path fill="#67EED0" opacity="1.000000" stroke="none" 
	d="
M64.053459,148.323563 
	C64.466293,147.759964 64.871178,147.480194 65.315491,147.295044 
	C66.480453,146.809662 67.662605,146.365524 68.837906,145.904938 
	C68.596199,147.203125 68.488777,148.547897 68.061020,149.781586 
	C67.815483,150.489731 67.050293,151.017685 66.249084,151.818817 
	C65.340584,150.890762 64.702034,149.770630 64.053459,148.323563 
z"/>
<path fill="#67EED0" opacity="1.000000" stroke="none" 
	d="
M77.215042,125.563568 
	C73.037010,125.996002 72.250938,123.962746 74.091087,120.145370 
	C75.287788,121.630806 76.241356,123.422401 77.215042,125.563568 
z"/>
<path fill="#52CEB5" opacity="1.000000" stroke="none" 
	d="
M117.556152,218.960388 
	C117.822762,220.268417 117.835083,221.466705 117.767944,223.109619 
	C116.617645,223.395691 115.546814,223.237122 114.256172,222.901306 
	C115.124863,221.432922 116.213364,220.141785 117.556152,218.960388 
z"/>
<path fill="#64EACB" opacity="1.000000" stroke="none" 
	d="
M277.882690,161.592636 
	C275.147766,160.702774 273.459625,159.269272 277.450012,157.047943 
	C277.840912,158.389587 277.905273,159.785110 277.882690,161.592636 
z"/>
<path fill="#67EED0" opacity="1.000000" stroke="none" 
	d="
M67.427444,155.512421 
	C68.319870,155.430695 69.212379,155.679153 70.104881,155.927597 
	C69.836754,156.570023 69.568626,157.212433 68.995865,157.978546 
	C68.269997,157.349030 67.848755,156.595825 67.427444,155.512421 
z"/>
<path fill="#64EACB" opacity="1.000000" stroke="none" 
	d="
M293.607483,201.920456 
	C292.753540,202.208328 291.506653,202.397705 290.129761,202.300217 
	C291.071381,201.949554 292.142975,201.885757 293.607483,201.920456 
z"/>
<path fill="#52CEB5" opacity="1.000000" stroke="none" 
	d="
M110.376984,222.132141 
	C110.890770,222.074310 111.290077,222.258026 111.828873,222.618195 
	C111.578545,223.147491 111.188705,223.500366 110.798859,223.853241 
	C110.620071,223.360031 110.441284,222.866852 110.376984,222.132141 
z"/>
<path fill="#64E9CB" opacity="1.000000" stroke="none" 
	d="
M159.360275,101.084854 
	C159.333679,100.416504 159.623672,99.740387 159.913651,99.064262 
	C160.236542,99.690102 160.559418,100.315941 160.852631,101.276985 
	C160.440933,101.433823 160.058884,101.255455 159.360275,101.084854 
z"/>
<path fill="#63E6CA" opacity="1.000000" stroke="none" 
	d="
M126.774857,35.745693 
	C126.543274,35.804363 126.452225,35.575512 126.541748,35.181938 
	C126.596390,35.064491 126.789482,35.505447 126.774857,35.745693 
z"/>
<path fill="#171E2F" opacity="1.000000" stroke="none" 
	d="
M230.286285,89.951416 
	C225.490311,67.191666 242.271790,46.863373 265.238892,45.852669 
	C281.349457,45.143696 297.518921,45.864929 313.645355,45.385300 
	C321.025635,45.165798 326.519379,47.682392 331.031921,53.620949 
	C328.973419,53.581390 326.613312,53.636200 324.639648,52.789803 
	C318.323700,50.081245 313.720764,50.764599 308.750763,55.619442 
	C308.174744,56.182140 307.429108,57.268806 306.985626,57.164280 
	C300.983032,55.749405 296.562134,58.828362 292.033722,61.972816 
	C290.925659,62.742237 289.130066,62.446178 287.727112,62.884869 
	C285.867340,63.466415 284.084412,64.292633 282.265320,65.005775 
	C281.124786,65.452904 279.644775,66.534286 278.919098,66.160934 
	C278.004761,65.690521 277.026245,63.844337 277.276154,62.914375 
	C277.849701,60.779922 278.712982,58.254166 280.326416,57.049477 
	C281.250427,56.359573 283.874023,57.945995 286.230499,58.658081 
	C286.233673,58.652367 286.671173,58.038647 286.929108,57.356979 
	C287.212616,56.607605 287.330872,55.795700 287.643555,54.506214 
	C289.351318,55.664936 290.735565,56.604153 292.119812,57.543369 
	C292.507965,57.397156 292.896118,57.250942 293.284271,57.104733 
	C292.994934,55.855682 293.108154,53.984989 292.334442,53.483990 
	C290.598816,52.360115 287.771057,50.722645 286.534760,51.396942 
	C280.139160,54.885162 273.525452,53.324852 267.224670,52.386459 
	C260.148621,51.332596 257.856232,52.226536 256.911957,60.036686 
	C254.376480,58.655640 252.084335,57.407127 249.846390,56.188137 
	C245.651382,61.119919 241.680862,65.787796 236.751221,71.583244 
	C240.457001,72.279808 243.200027,72.684822 245.880981,73.342758 
	C247.376785,73.709839 248.983215,74.253471 250.093231,75.226822 
	C250.484924,75.570297 249.887741,77.758415 249.143631,78.518547 
	C247.912979,79.775688 246.302582,81.057442 244.656967,81.405380 
	C242.855545,81.786247 240.837112,81.051247 238.905273,80.923714 
	C235.017960,80.667076 233.114334,82.450401 232.850952,86.432671 
	C232.772156,87.624092 231.386383,88.729073 230.286285,89.951416 
z"/>
<path fill="#64EBCC" opacity="1.000000" stroke="none" 
	d="
M229.313507,216.648346 
	C223.188614,215.637207 226.457611,210.610092 225.769547,207.908432 
	C223.184738,208.489212 220.932144,209.199417 218.628021,209.469131 
	C214.281967,209.977875 213.074234,212.319504 214.965439,216.337631 
	C216.198120,218.956573 217.458649,221.753159 217.734192,224.565445 
	C217.920822,226.470322 218.239151,229.551208 213.819443,229.197769 
	C212.433075,229.086899 210.669312,233.695221 209.058868,236.512390 
	C208.271057,232.639420 206.921890,228.408783 206.839691,224.153671 
	C206.556595,209.499222 206.866272,194.833603 206.611252,180.178131 
	C206.539154,176.034760 208.120789,174.404709 211.932953,174.382828 
	C217.878494,174.348709 223.824371,174.373810 229.446182,174.373810 
	C229.446182,188.680847 229.446182,202.467560 229.313507,216.648346 
z"/>
<path fill="#61ECCA" opacity="1.000000" stroke="none" 
	d="
M224.001160,152.414764 
	C220.942734,152.617706 218.287231,152.772919 215.630051,152.810837 
	C209.746063,152.894806 204.071030,145.777283 205.139236,139.894760 
	C205.772964,136.404861 205.315170,132.493454 206.740616,129.416687 
	C209.797089,122.819450 215.381180,120.448387 222.189743,121.728851 
	C227.277817,122.685753 233.157547,129.667633 233.743515,135.448395 
	C234.600494,143.902725 231.767441,149.018341 224.001160,152.414764 
z"/>
<path fill="#171E2F" opacity="1.000000" stroke="none" 
	d="
M273.029175,224.002838 
	C284.801666,223.555603 296.475464,223.463058 308.521057,223.163925 
	C313.455688,225.575958 310.764893,228.410614 309.656006,230.557953 
	C303.294312,230.557953 297.446228,230.324356 291.644470,230.739273 
	C290.361053,230.831055 288.469421,233.075653 288.197388,234.572418 
	C287.497559,238.422607 286.126068,240.036087 281.869843,239.344849 
	C275.884888,238.372894 272.497375,243.362656 274.895111,248.674194 
	C273.175476,249.680756 271.482239,250.671875 269.663757,251.736298 
	C267.843109,249.018143 267.460358,246.804825 269.630859,243.187973 
	C271.602173,239.903061 271.001038,235.074417 271.655731,229.978653 
	C268.763397,231.177841 267.347595,231.764832 265.931824,232.351822 
	C265.705841,232.060638 265.479858,231.769455 265.253876,231.478287 
	C267.812744,229.104706 270.371643,226.731125 273.029175,224.002838 
z"/>
<path fill="#171E2F" opacity="1.000000" stroke="none" 
	d="
M280.009216,81.172333 
	C275.867615,82.561829 271.721008,83.611855 267.289978,84.896088 
	C264.533569,86.972305 262.061646,88.814323 259.311218,90.833786 
	C259.032776,86.703102 259.032776,82.394958 259.032776,77.554459 
	C257.437866,78.489182 255.875351,79.404930 254.312805,80.320679 
	C253.903137,80.182343 253.493469,80.044014 253.083801,79.905678 
	C253.581024,78.313026 253.605850,75.995529 254.683380,75.293312 
	C256.409302,74.168503 259.358887,73.067268 260.855591,73.819008 
	C264.294281,75.546150 267.046539,78.512154 271.522369,77.598816 
	C272.199677,77.460602 273.287598,79.334610 274.386444,80.571396 
	C274.587311,80.864937 274.654266,80.909584 274.654266,80.909584 
	C276.050751,79.888908 277.447235,78.868225 278.843719,77.847534 
	C279.230560,78.842644 279.617401,79.837753 280.009216,81.172333 
z"/>
<path fill="#171E2F" opacity="1.000000" stroke="none" 
	d="
M290.099274,258.640533 
	C288.280609,259.046234 286.561127,259.111450 284.421326,259.077881 
	C286.484314,256.436768 288.744202,253.611267 291.511047,251.428360 
	C294.529358,249.047073 296.263367,247.033096 292.273834,244.182602 
	C290.021332,242.573196 289.416962,240.411713 291.870789,239.044281 
	C294.192627,237.750381 297.134491,237.569061 299.803650,236.898407 
	C299.500977,238.461411 299.719604,240.521957 298.794678,241.491013 
	C296.349945,244.052368 295.738129,246.155563 297.974213,249.287506 
	C299.959808,252.068573 298.874420,254.085220 295.396179,255.104004 
	C293.513092,255.655563 291.921509,257.202271 290.099274,258.640533 
z"/>
<path fill="#171E2F" opacity="1.000000" stroke="none" 
	d="
M206.303680,74.032646 
	C206.822067,81.415695 207.002426,88.838951 207.365585,96.921280 
	C207.533768,97.992653 207.519135,98.404953 207.504517,98.817253 
	C201.765381,97.861084 199.029510,92.437050 198.885727,88.651566 
	C198.689682,83.490524 199.628128,76.959877 206.303680,74.032646 
z"/>
<path fill="#171E2F" opacity="1.000000" stroke="none" 
	d="
M338.951477,81.097839 
	C330.647186,81.506058 322.275726,81.595375 313.445435,81.578430 
	C317.007446,76.640549 334.772980,76.164993 338.951477,81.097839 
z"/>
<path fill="#64EACB" opacity="1.000000" stroke="none" 
	d="
M254.888275,151.457245 
	C260.108002,152.948853 260.825897,154.568161 259.061462,159.161545 
	C258.504333,160.611969 258.920441,162.437576 258.358032,163.884262 
	C257.896088,165.072556 256.644531,165.953857 255.377655,166.985764 
	C254.936661,161.971634 254.860947,156.942963 254.888275,151.457245 
z"/>
<path fill="#66EDCF" opacity="1.000000" stroke="none" 
	d="
M207.729950,99.038528 
	C207.519135,98.404953 207.533768,97.992653 207.623627,97.279907 
	C209.915527,98.193016 212.256256,99.234299 214.291458,100.699837 
	C215.179855,101.339569 215.442444,102.848335 215.999222,104.304825 
	C214.904312,104.361488 213.799423,104.075775 212.215347,103.699112 
	C211.493729,103.530647 211.260925,103.559525 211.037720,103.694763 
	C210.010284,102.216446 208.982849,100.738121 207.729950,99.038528 
z"/>
<path fill="#171E2F" opacity="1.000000" stroke="none" 
	d="
M291.010742,81.126602 
	C289.933502,81.572754 288.855804,81.641190 287.382446,81.611954 
	C287.328247,78.718796 286.059082,75.060989 291.010254,74.275360 
	C291.010254,76.626015 291.010254,78.687439 291.010742,81.126602 
z"/>
<path fill="#171E2F" opacity="1.000000" stroke="none" 
	d="
M196.998322,265.582458 
	C194.637146,265.251312 192.586807,264.785461 190.536469,264.319580 
	C190.696991,263.656342 190.857498,262.993103 191.018005,262.329865 
	C193.185471,262.699493 195.357224,263.049591 197.502121,263.521790 
	C197.575562,263.537933 197.379562,264.778046 196.998322,265.582458 
z"/>
<path fill="#171E2F" opacity="1.000000" stroke="none" 
	d="
M190.480759,63.014843 
	C192.013992,62.776749 193.558319,62.873585 195.102631,62.970421 
	C194.958069,63.826569 194.813507,64.682716 194.668945,65.538864 
	C193.276581,64.809166 191.884201,64.079468 190.480759,63.014843 
z"/>
<path fill="#171E2F" opacity="1.000000" stroke="none" 
	d="
M261.322449,218.961456 
	C263.590424,219.852280 265.621918,220.986694 267.893250,222.331940 
	C266.388275,222.601364 264.507904,223.071991 262.950928,222.559662 
	C262.058014,222.265839 261.690216,220.376236 261.322449,218.961456 
z"/>
<path fill="#171E2F" opacity="1.000000" stroke="none" 
	d="
M271.154846,67.351334 
	C270.284790,68.449448 269.268951,69.271698 268.253113,70.093948 
	C267.974121,69.239540 267.695129,68.385132 267.416138,67.530731 
	C268.613800,67.378983 269.811432,67.227226 271.154846,67.351334 
z"/>
<path fill="#171E2F" opacity="1.000000" stroke="none" 
	d="
M183.483032,105.944244 
	C183.050262,104.282997 182.960785,102.562866 182.967743,100.420845 
	C186.312607,101.573410 187.432953,103.423386 183.483032,105.944244 
z"/>
<path fill="#171E2F" opacity="1.000000" stroke="none" 
	d="
M252.114319,234.897430 
	C250.544128,234.911819 249.040588,234.643265 247.537048,234.374710 
	C247.764313,233.708618 247.991562,233.042542 248.218811,232.376450 
	C249.539536,233.122467 250.860260,233.868469 252.114319,234.897430 
z"/>
<path fill="#171E2F" opacity="1.000000" stroke="none" 
	d="
M307.950836,258.643127 
	C306.606018,259.052002 305.211945,259.118896 303.408905,259.086884 
	C304.272858,256.182556 305.666718,254.240616 307.950836,258.643127 
z"/>
<path fill="#171E2F" opacity="1.000000" stroke="none" 
	d="
M244.008423,249.599457 
	C243.055573,249.314026 242.099121,248.664215 240.963989,247.780624 
	C241.474518,247.007080 242.163712,246.467316 242.852905,245.927551 
	C243.236877,247.030075 243.620834,248.132568 244.008423,249.599457 
z"/>
<path fill="#171E2F" opacity="1.000000" stroke="none" 
	d="
M297.898926,81.235588 
	C296.932404,81.576775 295.854523,81.641800 294.381561,81.607010 
	C294.825134,78.352280 296.172882,78.729713 297.898926,81.235588 
z"/>
<path fill="#64EACB" opacity="1.000000" stroke="none" 
	d="
M254.905334,181.392502 
	C255.197327,182.246811 255.388901,183.493759 255.292664,184.870392 
	C254.938217,183.928436 254.871552,182.856781 254.905334,181.392502 
z"/>
<path fill="#171E2F" opacity="1.000000" stroke="none" 
	d="
M257.671204,247.769501 
	C257.970184,248.249023 258.075684,248.648575 258.181152,249.048126 
	C257.781830,249.019913 257.382507,248.991714 256.983215,248.963501 
	C257.148041,248.538849 257.312866,248.114197 257.671204,247.769501 
z"/>
<path fill="#66EDCF" opacity="1.000000" stroke="none" 
	d="
M219.249603,104.362679 
	C219.898285,103.838684 220.825150,103.396782 221.958740,103.162354 
	C221.286255,103.728142 220.407028,104.086456 219.249603,104.362679 
z"/>
<path fill="#64E9CB" opacity="1.000000" stroke="none" 
	d="
M182.948181,127.633537 
	C182.675064,127.075516 182.501434,126.147842 182.584045,125.108002 
	C182.909409,125.751854 182.978546,126.507866 182.948181,127.633537 
z"/>
<path fill="#171E2F" opacity="1.000000" stroke="none" 
	d="
M256.483032,242.679474 
	C256.769135,242.365982 257.102905,242.235535 257.436646,242.105072 
	C257.476593,242.255173 257.564453,242.531219 257.549530,242.536896 
	C257.216736,242.663406 256.872650,242.760132 256.483032,242.679474 
z"/>
<path fill="#171E2F" opacity="1.000000" stroke="none" 
	d="
M278.890991,258.700928 
	C278.246033,259.034607 277.491882,259.101318 276.368774,259.070587 
	C276.927155,258.793427 277.854462,258.613678 278.890991,258.700928 
z"/>
<path fill="#171E2F" opacity="1.000000" stroke="none" 
	d="
M262.964386,237.289719 
	C262.891174,237.097260 262.937012,236.909393 262.982849,236.721512 
	C263.016357,236.912445 263.049896,237.103378 262.964386,237.289719 
z"/>
<path fill="#171E2F" opacity="1.000000" stroke="none" 
	d="
M305.767639,64.174995 
	C305.855225,63.988197 306.021851,63.888756 306.188446,63.789310 
	C306.074524,63.946991 305.960571,64.104668 305.767639,64.174995 
z"/>
<path fill="#67F1D2" opacity="1.000000" stroke="none" 
	d="
M211.263351,103.802994 
	C211.260925,103.559525 211.493729,103.530647 211.844345,103.665298 
	C211.798019,103.785378 211.643509,103.848305 211.263351,103.802994 
z"/>
<path fill="#67EED2" opacity="1.000000" stroke="none" 
	d="
M274.666138,80.854599 
	C274.654266,80.909584 274.587311,80.864937 274.658081,80.884384 
	C274.728821,80.903839 274.678009,80.799614 274.666138,80.854599 
z"/>
<path fill="#64EACB" opacity="1.000000" stroke="none" 
	d="
M268.120178,151.966019 
	C267.942078,152.847031 267.593536,153.558624 267.244995,154.270218 
	C266.906616,154.021149 266.568268,153.772079 266.229919,153.523010 
	C266.803192,152.947540 267.376495,152.372086 268.120178,151.966019 
z"/>
<path fill="#67EED0" opacity="1.000000" stroke="none" 
	d="
M79.888733,144.822784 
	C80.771355,144.993301 81.463150,145.360931 82.154945,145.728561 
	C81.855301,146.037842 81.555656,146.347107 81.256020,146.656387 
	C80.736656,146.110886 80.217285,145.565384 79.888733,144.822784 
z"/>
<path fill="#6BEDD1" opacity="1.000000" stroke="none" 
	d="
M103.501793,219.467911 
	C103.527969,219.457764 103.475616,219.478058 103.501793,219.467911 
z"/>
</svg>