<svg width="359" height="41" viewBox="0 0 359 41" fill="none" xmlns="http://www.w3.org/2000/svg">
<path d="M18.64 13.264C21.872 13.264 24.464 14.24 26.416 16.192C28.4 18.144 29.392 21.088 29.392 25.024V40H18.544V26.896C18.544 23.888 17.472 22.384 15.328 22.384C14.112 22.384 13.12 22.816 12.352 23.68C11.616 24.512 11.248 25.84 11.248 27.664V40H0.4V13.744H10.72V16.336C11.744 15.312 12.928 14.544 14.272 14.032C15.616 13.52 17.072 13.264 18.64 13.264ZM62.5079 26.848C62.5079 27.008 62.4599 27.856 62.3639 29.392H44.1239C44.5079 30.384 45.1479 31.152 46.0439 31.696C46.9399 32.208 48.0599 32.464 49.4039 32.464C50.5559 32.464 51.5159 32.32 52.2839 32.032C53.0839 31.744 53.9479 31.248 54.8759 30.544L60.5399 36.256C57.9799 39.072 54.1559 40.48 49.0679 40.48C45.8999 40.48 43.1159 39.904 40.7159 38.752C38.3159 37.568 36.4599 35.936 35.1479 33.856C33.8359 31.776 33.1799 29.44 33.1799 26.848C33.1799 24.224 33.8199 21.888 35.0999 19.84C36.4119 17.76 38.1879 16.144 40.4279 14.992C42.6999 13.84 45.2439 13.264 48.0599 13.264C50.7159 13.264 53.1319 13.792 55.3079 14.848C57.5159 15.904 59.2599 17.456 60.5399 19.504C61.8519 21.552 62.5079 24 62.5079 26.848ZM48.1559 20.656C47.0359 20.656 46.1079 20.96 45.3719 21.568C44.6359 22.176 44.1559 23.04 43.9319 24.16H52.3799C52.1559 23.072 51.6759 22.224 50.9399 21.616C50.2039 20.976 49.2759 20.656 48.1559 20.656ZM85.2753 39.088C83.6433 40.016 81.4193 40.48 78.6033 40.48C74.9233 40.48 72.0913 39.6 70.1073 37.84C68.1233 36.048 67.1313 33.376 67.1313 29.824V23.104H63.5312V15.184H67.1313V7.84H77.9793V15.184H83.3553V23.104H77.9793V29.728C77.9793 30.528 78.1873 31.152 78.6033 31.6C79.0193 32.048 79.5633 32.272 80.2353 32.272C81.1633 32.272 81.9793 32.032 82.6833 31.552L85.2753 39.088ZM99.2526 15.184H104.965V23.104H99.5886V40H88.7406V23.104H85.1406V15.184H88.7406V15.04C88.7406 11.616 89.7646 8.912 91.8126 6.928C93.8606 4.912 96.7406 3.904 100.453 3.904C101.669 3.904 102.853 4.016 104.005 4.24C105.157 4.464 106.117 4.784 106.885 5.2L104.293 12.736C103.397 12.32 102.581 12.112 101.845 12.112C101.045 12.112 100.405 12.368 99.9246 12.88C99.4766 13.36 99.2526 14.112 99.2526 15.136V15.184ZM107.989 4.384H118.837V40H107.989V4.384ZM123.634 13.744H134.482V40H123.634V13.744ZM129.058 11.632C127.106 11.632 125.522 11.12 124.306 10.096C123.122 9.04 122.53 7.712 122.53 6.112C122.53 4.512 123.122 3.2 124.306 2.176C125.522 1.12 127.106 0.591998 129.058 0.591998C131.042 0.591998 132.626 1.088 133.81 2.08C134.994 3.072 135.586 4.352 135.586 5.92C135.586 7.584 134.994 8.96 133.81 10.048C132.626 11.104 131.042 11.632 129.058 11.632ZM155.851 40L152.251 34.384L148.219 40H136.459L146.395 26.992L136.747 13.744H148.987L152.731 19.312L156.667 13.744H168.043L158.395 26.512L168.283 40H155.851ZM176.612 18.832C177.412 17.36 178.596 16.24 180.164 15.472C181.732 14.704 183.636 14.32 185.876 14.32V18.784C185.62 18.752 185.268 18.736 184.82 18.736C182.324 18.736 180.356 19.488 178.916 20.992C177.508 22.464 176.804 24.576 176.804 27.328V40H172.196V14.56H176.612V18.832ZM202.217 40.288C199.689 40.288 197.417 39.728 195.401 38.608C193.385 37.488 191.801 35.952 190.649 34C189.529 32.016 188.969 29.776 188.969 27.28C188.969 24.784 189.529 22.56 190.649 20.608C191.801 18.624 193.385 17.088 195.401 16C197.417 14.88 199.689 14.32 202.217 14.32C204.745 14.32 207.001 14.88 208.985 16C211.001 17.088 212.569 18.624 213.689 20.608C214.841 22.56 215.417 24.784 215.417 27.28C215.417 29.776 214.841 32.016 213.689 34C212.569 35.952 211.001 37.488 208.985 38.608C207.001 39.728 204.745 40.288 202.217 40.288ZM202.217 36.256C203.849 36.256 205.305 35.888 206.585 35.152C207.897 34.384 208.921 33.328 209.657 31.984C210.393 30.608 210.761 29.04 210.761 27.28C210.761 25.52 210.393 23.968 209.657 22.624C208.921 21.248 207.897 20.192 206.585 19.456C205.305 18.72 203.849 18.352 202.217 18.352C200.585 18.352 199.113 18.72 197.801 19.456C196.521 20.192 195.497 21.248 194.729 22.624C193.993 23.968 193.625 25.52 193.625 27.28C193.625 29.04 193.993 30.608 194.729 31.984C195.497 33.328 196.521 34.384 197.801 35.152C199.113 35.888 200.585 36.256 202.217 36.256ZM245.502 14.56V40H241.134V36.16C240.206 37.472 238.974 38.496 237.438 39.232C235.934 39.936 234.286 40.288 232.494 40.288C229.102 40.288 226.43 39.36 224.478 37.504C222.526 35.616 221.55 32.848 221.55 29.2V14.56H226.158V28.672C226.158 31.136 226.75 33.008 227.934 34.288C229.118 35.536 230.814 36.16 233.022 36.16C235.454 36.16 237.374 35.424 238.782 33.952C240.19 32.48 240.894 30.4 240.894 27.712V14.56H245.502ZM254.274 4.384H258.882V40H254.274V4.384ZM290.673 27.424C290.673 27.776 290.641 28.24 290.577 28.816H269.937C270.225 31.056 271.201 32.864 272.865 34.24C274.561 35.584 276.657 36.256 279.153 36.256C282.193 36.256 284.641 35.232 286.497 33.184L289.041 36.16C287.889 37.504 286.449 38.528 284.721 39.232C283.025 39.936 281.121 40.288 279.009 40.288C276.321 40.288 273.937 39.744 271.857 38.656C269.777 37.536 268.161 35.984 267.009 34C265.889 32.016 265.329 29.776 265.329 27.28C265.329 24.816 265.873 22.592 266.961 20.608C268.081 18.624 269.601 17.088 271.521 16C273.473 14.88 275.665 14.32 278.097 14.32C280.529 14.32 282.689 14.88 284.577 16C286.497 17.088 287.985 18.624 289.041 20.608C290.129 22.592 290.673 24.864 290.673 27.424ZM278.097 18.208C275.889 18.208 274.033 18.88 272.529 20.224C271.057 21.568 270.193 23.328 269.937 25.504H286.257C286.001 23.36 285.121 21.616 283.617 20.272C282.145 18.896 280.305 18.208 278.097 18.208ZM311.375 38.512C310.703 39.088 309.871 39.536 308.879 39.856C307.887 40.144 306.863 40.288 305.807 40.288C303.247 40.288 301.263 39.6 299.855 38.224C298.447 36.848 297.743 34.88 297.743 32.32V18.352H293.423V14.56H297.743V8.992H302.351V14.56H309.647V18.352H302.351V32.128C302.351 33.504 302.687 34.56 303.359 35.296C304.063 36.032 305.055 36.4 306.335 36.4C307.743 36.4 308.943 36 309.935 35.2L311.375 38.512ZM330.641 38.512C329.969 39.088 329.137 39.536 328.145 39.856C327.153 40.144 326.129 40.288 325.073 40.288C322.513 40.288 320.529 39.6 319.121 38.224C317.713 36.848 317.009 34.88 317.009 32.32V18.352H312.689V14.56H317.009V8.992H321.617V14.56H328.913V18.352H321.617V32.128C321.617 33.504 321.953 34.56 322.625 35.296C323.329 36.032 324.321 36.4 325.601 36.4C327.009 36.4 328.209 36 329.201 35.2L330.641 38.512ZM358.36 27.424C358.36 27.776 358.328 28.24 358.264 28.816H337.624C337.912 31.056 338.888 32.864 340.552 34.24C342.248 35.584 344.344 36.256 346.84 36.256C349.88 36.256 352.328 35.232 354.184 33.184L356.728 36.16C355.576 37.504 354.136 38.528 352.408 39.232C350.712 39.936 348.808 40.288 346.696 40.288C344.008 40.288 341.624 39.744 339.544 38.656C337.464 37.536 335.848 35.984 334.696 34C333.576 32.016 333.016 29.776 333.016 27.28C333.016 24.816 333.56 22.592 334.648 20.608C335.768 18.624 337.288 17.088 339.208 16C341.16 14.88 343.352 14.32 345.784 14.32C348.216 14.32 350.376 14.88 352.264 16C354.184 17.088 355.672 18.624 356.728 20.608C357.816 22.592 358.36 24.864 358.36 27.424ZM345.784 18.208C343.576 18.208 341.72 18.88 340.216 20.224C338.744 21.568 337.88 23.328 337.624 25.504H353.944C353.688 23.36 352.808 21.616 351.304 20.272C349.832 18.896 347.992 18.208 345.784 18.208Z" fill="#F65261"/>
</svg>
